<svg xmlns="http://www.w3.org/2000/svg" xmlns:xlink="http://www.w3.org/1999/xlink" width="500" zoomAndPan="magnify" viewBox="0 0 375 374.999991" height="500" preserveAspectRatio="xMidYMid meet" version="1.0"><defs><g/><clipPath id="f16f0e9bb7"><path d="M 59 165.21875 L 71 165.21875 L 71 189 L 59 189 Z M 59 165.21875 " clip-rule="nonzero"/></clipPath><clipPath id="0a365d842a"><path d="M 58.316406 176 L 101.816406 176 L 101.816406 209.46875 L 58.316406 209.46875 Z M 58.316406 176 " clip-rule="nonzero"/></clipPath><clipPath id="30866cd649"><rect x="0" width="216" y="0" height="42"/></clipPath></defs><path fill="#000000" d="M 78.398438 190.253906 L 75.367188 190.253906 L 69.851562 195.765625 C 69.730469 195.6875 69.59375 195.640625 69.449219 195.628906 C 69.300781 195.617188 69.160156 195.640625 69.027344 195.699219 C 68.890625 195.753906 68.777344 195.839844 68.683594 195.953125 C 68.59375 196.066406 68.53125 196.195312 68.503906 196.339844 C 68.476562 196.484375 68.480469 196.628906 68.523438 196.765625 C 68.566406 196.90625 68.636719 197.03125 68.742188 197.136719 C 68.84375 197.238281 68.964844 197.3125 69.105469 197.359375 C 69.242188 197.402344 69.386719 197.414062 69.53125 197.386719 C 69.675781 197.359375 69.804688 197.300781 69.921875 197.210938 C 70.035156 197.121094 70.125 197.007812 70.183594 196.875 C 70.242188 196.742188 70.269531 196.601562 70.257812 196.453125 C 70.25 196.308594 70.203125 196.171875 70.128906 196.046875 L 75.53125 190.644531 L 78.5625 190.644531 L 93.25 175.957031 C 93.382812 176.023438 93.523438 176.050781 93.667969 176.046875 C 93.816406 176.042969 93.953125 176.003906 94.082031 175.933594 C 94.207031 175.859375 94.3125 175.761719 94.390625 175.640625 C 94.46875 175.515625 94.515625 175.378906 94.527344 175.234375 C 94.539062 175.085938 94.519531 174.945312 94.460938 174.8125 C 94.402344 174.675781 94.316406 174.5625 94.203125 174.46875 C 94.089844 174.378906 93.960938 174.316406 93.816406 174.289062 C 93.671875 174.257812 93.53125 174.265625 93.390625 174.308594 C 93.246094 174.351562 93.125 174.421875 93.019531 174.527344 C 92.914062 174.628906 92.839844 174.75 92.796875 174.890625 C 92.75 175.03125 92.742188 175.171875 92.769531 175.316406 C 92.792969 175.460938 92.851562 175.589844 92.941406 175.707031 Z M 78.398438 190.253906 " fill-opacity="1" fill-rule="nonzero"/><path fill="#000000" d="M 79.050781 183.535156 C 78.941406 183.441406 78.8125 183.378906 78.667969 183.347656 C 78.523438 183.316406 78.382812 183.320312 78.242188 183.359375 C 78.101562 183.402344 77.976562 183.472656 77.871094 183.570312 C 77.765625 183.671875 77.6875 183.792969 77.640625 183.933594 C 77.59375 184.070312 77.582031 184.210938 77.605469 184.355469 C 77.628906 184.503906 77.683594 184.632812 77.773438 184.75 C 77.863281 184.867188 77.972656 184.957031 78.105469 185.019531 C 78.238281 185.082031 78.378906 185.109375 78.523438 185.101562 C 78.671875 185.09375 78.804688 185.054688 78.933594 184.980469 C 79.058594 184.90625 79.160156 184.804688 79.238281 184.679688 C 79.3125 184.554688 79.355469 184.421875 79.367188 184.273438 C 79.375 184.128906 79.351562 183.988281 79.292969 183.855469 L 87.636719 175.507812 C 87.785156 175.609375 87.949219 175.671875 88.132812 175.695312 C 88.3125 175.714844 88.484375 175.691406 88.652344 175.625 C 88.824219 175.558594 88.964844 175.457031 89.082031 175.320312 C 89.199219 175.179688 89.277344 175.023438 89.316406 174.84375 C 89.351562 174.667969 89.34375 174.492188 89.292969 174.316406 C 89.242188 174.144531 89.15625 173.992188 89.027344 173.863281 C 88.902344 173.734375 88.75 173.640625 88.578125 173.589844 C 88.40625 173.535156 88.230469 173.523438 88.050781 173.558594 C 87.871094 173.59375 87.714844 173.667969 87.574219 173.785156 C 87.433594 173.898438 87.328125 174.039062 87.257812 174.207031 C 87.191406 174.375 87.164062 174.550781 87.183594 174.730469 C 87.199219 174.910156 87.261719 175.074219 87.363281 175.226562 Z M 88.261719 173.929688 C 88.449219 173.929688 88.613281 174 88.75 174.132812 C 88.882812 174.269531 88.949219 174.429688 88.949219 174.621094 C 88.949219 174.8125 88.882812 174.972656 88.75 175.109375 C 88.613281 175.242188 88.449219 175.3125 88.261719 175.3125 C 88.070312 175.3125 87.90625 175.242188 87.773438 175.109375 C 87.636719 174.972656 87.570312 174.8125 87.570312 174.621094 C 87.570312 174.429688 87.636719 174.269531 87.773438 174.132812 C 87.90625 174 88.070312 173.929688 88.261719 173.929688 Z M 88.261719 173.929688 " fill-opacity="1" fill-rule="nonzero"/><path fill="#000000" d="M 60.289062 200.433594 C 60.511719 200.433594 60.710938 200.355469 60.878906 200.207031 C 61.046875 200.054688 61.144531 199.867188 61.167969 199.644531 C 61.191406 199.421875 61.140625 199.214844 61.011719 199.03125 C 60.878906 198.847656 60.703125 198.730469 60.484375 198.679688 L 60.484375 190.535156 L 69.863281 181.550781 L 72.496094 181.550781 L 81.039062 173.007812 C 81.164062 173.085938 81.300781 173.128906 81.445312 173.140625 C 81.59375 173.152344 81.730469 173.125 81.867188 173.066406 C 82 173.007812 82.113281 172.921875 82.203125 172.808594 C 82.296875 172.695312 82.355469 172.566406 82.382812 172.421875 C 82.410156 172.277344 82.402344 172.136719 82.359375 171.996094 C 82.316406 171.855469 82.242188 171.734375 82.136719 171.628906 C 82.035156 171.527344 81.914062 171.453125 81.773438 171.410156 C 81.632812 171.367188 81.492188 171.359375 81.347656 171.386719 C 81.203125 171.414062 81.074219 171.472656 80.960938 171.5625 C 80.84375 171.65625 80.757812 171.769531 80.699219 171.902344 C 80.640625 172.035156 80.617188 172.175781 80.628906 172.324219 C 80.640625 172.46875 80.683594 172.605469 80.761719 172.726562 L 72.335938 181.15625 L 69.707031 181.15625 L 63.496094 187.105469 L 63.515625 181.433594 L 68.90625 176.042969 C 69.03125 176.121094 69.167969 176.164062 69.3125 176.171875 C 69.460938 176.183594 69.601562 176.15625 69.734375 176.097656 C 69.867188 176.039062 69.980469 175.949219 70.070312 175.835938 C 70.160156 175.71875 70.21875 175.589844 70.246094 175.445312 C 70.269531 175.300781 70.261719 175.160156 70.214844 175.019531 C 70.171875 174.878906 70.097656 174.757812 69.992188 174.65625 C 69.886719 174.554688 69.765625 174.480469 69.625 174.4375 C 69.484375 174.398438 69.34375 174.390625 69.199219 174.417969 C 69.054688 174.449219 68.925781 174.507812 68.8125 174.601562 C 68.699219 174.695312 68.613281 174.808594 68.558594 174.941406 C 68.5 175.078125 68.476562 175.21875 68.488281 175.363281 C 68.5 175.507812 68.546875 175.644531 68.625 175.765625 L 63.121094 181.269531 L 63.101562 187.386719 L 63.199219 187.386719 L 60.089844 190.363281 L 60.089844 198.679688 C 59.871094 198.730469 59.695312 198.847656 59.566406 199.03125 C 59.433594 199.214844 59.382812 199.421875 59.40625 199.644531 C 59.433594 199.867188 59.527344 200.054688 59.695312 200.207031 C 59.863281 200.355469 60.0625 200.433594 60.289062 200.433594 Z M 60.289062 200.433594 " fill-opacity="1" fill-rule="nonzero"/><path fill="#000000" d="M 60.289062 206.496094 C 60.636719 206.496094 60.894531 206.34375 61.0625 206.039062 C 61.234375 205.734375 61.222656 205.433594 61.039062 205.136719 L 63.378906 202.796875 L 69.464844 202.796875 L 74.976562 197.265625 C 75.101562 197.34375 75.238281 197.386719 75.382812 197.398438 C 75.527344 197.40625 75.667969 197.382812 75.804688 197.324219 C 75.9375 197.265625 76.050781 197.179688 76.140625 197.0625 C 76.230469 196.949219 76.292969 196.820312 76.316406 196.675781 C 76.34375 196.53125 76.335938 196.390625 76.292969 196.25 C 76.25 196.109375 76.175781 195.988281 76.074219 195.886719 C 75.96875 195.78125 75.847656 195.707031 75.707031 195.664062 C 75.566406 195.621094 75.425781 195.617188 75.28125 195.644531 C 75.136719 195.671875 75.007812 195.730469 74.894531 195.820312 C 74.777344 195.914062 74.691406 196.027344 74.632812 196.160156 C 74.574219 196.296875 74.550781 196.433594 74.5625 196.582031 C 74.574219 196.726562 74.621094 196.863281 74.699219 196.984375 L 69.300781 202.402344 L 63.773438 202.402344 L 66.550781 199.628906 L 66.550781 193.5625 L 81.039062 179.070312 C 81.164062 179.148438 81.300781 179.195312 81.445312 179.203125 C 81.59375 179.214844 81.730469 179.191406 81.867188 179.132812 C 82 179.074219 82.113281 178.988281 82.203125 178.871094 C 82.296875 178.757812 82.355469 178.628906 82.382812 178.484375 C 82.410156 178.339844 82.402344 178.199219 82.359375 178.058594 C 82.316406 177.917969 82.242188 177.796875 82.136719 177.695312 C 82.035156 177.589844 81.914062 177.515625 81.773438 177.472656 C 81.632812 177.429688 81.492188 177.421875 81.347656 177.449219 C 81.203125 177.476562 81.074219 177.539062 80.960938 177.628906 C 80.84375 177.71875 80.757812 177.832031 80.699219 177.96875 C 80.640625 178.101562 80.617188 178.242188 80.628906 178.386719 C 80.640625 178.535156 80.683594 178.667969 80.761719 178.792969 L 66.15625 193.398438 L 66.15625 199.464844 L 60.757812 204.859375 C 60.640625 204.785156 60.511719 204.742188 60.375 204.726562 C 60.234375 204.714844 60.101562 204.730469 59.972656 204.78125 C 59.839844 204.832031 59.730469 204.90625 59.636719 205.011719 C 59.539062 205.113281 59.472656 205.230469 59.4375 205.363281 C 59.398438 205.5 59.390625 205.632812 59.414062 205.769531 C 59.441406 205.90625 59.496094 206.03125 59.578125 206.144531 C 59.664062 206.253906 59.765625 206.339844 59.890625 206.402344 C 60.015625 206.464844 60.148438 206.496094 60.289062 206.496094 Z M 60.289062 206.496094 " fill-opacity="1" fill-rule="nonzero"/><g clip-path="url(#f16f0e9bb7)"><path fill="#000000" d="M 60.289062 188.304688 C 60.511719 188.304688 60.710938 188.226562 60.878906 188.078125 C 61.046875 187.925781 61.144531 187.742188 61.167969 187.515625 C 61.191406 187.292969 61.140625 187.089844 61.011719 186.902344 C 60.878906 186.71875 60.703125 186.601562 60.484375 186.550781 L 60.484375 175.371094 L 68.90625 166.945312 C 69.03125 167.023438 69.167969 167.066406 69.316406 167.078125 C 69.460938 167.085938 69.601562 167.0625 69.734375 167 C 69.871094 166.941406 69.980469 166.855469 70.070312 166.738281 C 70.164062 166.625 70.222656 166.492188 70.246094 166.347656 C 70.273438 166.203125 70.261719 166.0625 70.21875 165.921875 C 70.175781 165.78125 70.101562 165.660156 69.996094 165.558594 C 69.890625 165.457031 69.769531 165.382812 69.628906 165.339844 C 69.488281 165.300781 69.34375 165.292969 69.199219 165.320312 C 69.058594 165.351562 68.929688 165.410156 68.8125 165.503906 C 68.699219 165.59375 68.613281 165.710938 68.558594 165.84375 C 68.5 165.980469 68.476562 166.121094 68.488281 166.265625 C 68.5 166.410156 68.546875 166.546875 68.625 166.671875 L 60.089844 175.207031 L 60.089844 186.550781 C 59.871094 186.601562 59.695312 186.71875 59.566406 186.902344 C 59.433594 187.089844 59.382812 187.292969 59.40625 187.515625 C 59.433594 187.742188 59.527344 187.925781 59.695312 188.078125 C 59.863281 188.226562 60.0625 188.304688 60.289062 188.304688 Z M 60.289062 188.304688 " fill-opacity="1" fill-rule="nonzero"/></g><g clip-path="url(#0a365d842a)"><path fill="#000000" d="M 100.234375 200.953125 C 99.792969 200.953125 99.472656 201.152344 99.269531 201.542969 C 99.070312 201.9375 99.097656 202.3125 99.355469 202.671875 L 96.59375 205.410156 L 88.339844 205.128906 L 96.199219 197.265625 C 96.324219 197.34375 96.460938 197.386719 96.605469 197.398438 C 96.753906 197.410156 96.894531 197.386719 97.027344 197.328125 C 97.164062 197.269531 97.277344 197.183594 97.367188 197.066406 C 97.457031 196.953125 97.519531 196.824219 97.546875 196.679688 C 97.574219 196.535156 97.566406 196.394531 97.519531 196.253906 C 97.476562 196.113281 97.40625 195.992188 97.300781 195.886719 C 97.195312 195.78125 97.074219 195.710938 96.933594 195.667969 C 96.792969 195.625 96.652344 195.613281 96.507812 195.640625 C 96.363281 195.667969 96.234375 195.730469 96.121094 195.820312 C 96.003906 195.914062 95.917969 196.023438 95.859375 196.160156 C 95.800781 196.292969 95.777344 196.433594 95.789062 196.582031 C 95.800781 196.726562 95.84375 196.863281 95.921875 196.988281 L 84.460938 208.445312 L 78.957031 208.445312 L 96.203125 191.203125 C 96.324219 191.28125 96.460938 191.324219 96.609375 191.335938 C 96.753906 191.347656 96.894531 191.324219 97.027344 191.265625 C 97.164062 191.207031 97.277344 191.117188 97.367188 191.003906 C 97.460938 190.890625 97.519531 190.757812 97.546875 190.617188 C 97.574219 190.472656 97.566406 190.328125 97.523438 190.1875 C 97.480469 190.046875 97.40625 189.925781 97.300781 189.824219 C 97.199219 189.71875 97.078125 189.644531 96.9375 189.601562 C 96.796875 189.558594 96.652344 189.550781 96.507812 189.578125 C 96.363281 189.605469 96.234375 189.664062 96.121094 189.757812 C 96.007812 189.847656 95.917969 189.960938 95.859375 190.09375 C 95.800781 190.230469 95.777344 190.371094 95.789062 190.515625 C 95.800781 190.664062 95.84375 190.796875 95.921875 190.921875 L 78.398438 208.445312 L 72.890625 208.445312 L 84.074219 197.261719 C 84.199219 197.339844 84.335938 197.386719 84.480469 197.398438 C 84.625 197.40625 84.765625 197.382812 84.902344 197.324219 C 85.035156 197.265625 85.148438 197.179688 85.242188 197.066406 C 85.332031 196.949219 85.390625 196.820312 85.417969 196.675781 C 85.445312 196.53125 85.4375 196.390625 85.394531 196.25 C 85.351562 196.109375 85.277344 195.988281 85.175781 195.882812 C 85.070312 195.78125 84.949219 195.707031 84.808594 195.664062 C 84.667969 195.621094 84.527344 195.613281 84.382812 195.640625 C 84.238281 195.667969 84.109375 195.726562 83.992188 195.816406 C 83.878906 195.910156 83.792969 196.023438 83.734375 196.15625 C 83.675781 196.292969 83.652344 196.433594 83.660156 196.578125 C 83.671875 196.726562 83.71875 196.859375 83.796875 196.984375 L 78.679688 202.101562 L 78.679688 193.5625 L 84.628906 187.613281 L 90.691406 187.613281 L 99.699219 178.609375 C 99.851562 178.703125 100.019531 178.757812 100.203125 178.769531 C 100.382812 178.78125 100.558594 178.75 100.722656 178.675781 C 100.886719 178.601562 101.027344 178.492188 101.136719 178.347656 C 101.246094 178.203125 101.316406 178.039062 101.34375 177.859375 C 101.375 177.679688 101.359375 177.503906 101.300781 177.332031 C 101.238281 177.160156 101.140625 177.011719 101.007812 176.890625 C 100.875 176.765625 100.71875 176.683594 100.542969 176.636719 C 100.367188 176.59375 100.191406 176.59375 100.015625 176.636719 C 99.835938 176.679688 99.679688 176.761719 99.546875 176.886719 C 99.410156 177.007812 99.3125 177.152344 99.253906 177.324219 C 99.191406 177.496094 99.175781 177.671875 99.203125 177.851562 C 99.230469 178.03125 99.296875 178.195312 99.40625 178.339844 L 90.527344 187.21875 L 85.023438 187.21875 L 90.148438 182.09375 C 90.273438 182.171875 90.410156 182.214844 90.554688 182.222656 C 90.703125 182.234375 90.84375 182.207031 90.976562 182.148438 C 91.109375 182.085938 91.222656 182 91.3125 181.882812 C 91.402344 181.769531 91.460938 181.636719 91.488281 181.492188 C 91.511719 181.347656 91.503906 181.207031 91.457031 181.066406 C 91.414062 180.925781 91.339844 180.804688 91.234375 180.703125 C 91.128906 180.597656 91.003906 180.527344 90.863281 180.484375 C 90.722656 180.441406 90.582031 180.4375 90.4375 180.464844 C 90.292969 180.496094 90.164062 180.554688 90.050781 180.648438 C 89.9375 180.742188 89.851562 180.855469 89.792969 180.992188 C 89.734375 181.128906 89.714844 181.269531 89.726562 181.414062 C 89.738281 181.5625 89.785156 181.695312 89.863281 181.820312 L 78.339844 193.34375 L 78.28125 193.398438 L 78.28125 202.496094 L 72.335938 208.445312 L 60.464844 208.445312 C 60.433594 208.265625 60.359375 208.105469 60.246094 207.964844 C 60.132812 207.820312 59.992188 207.714844 59.824219 207.644531 C 59.65625 207.574219 59.480469 207.546875 59.300781 207.5625 C 59.121094 207.578125 58.953125 207.636719 58.800781 207.738281 C 58.648438 207.839844 58.53125 207.96875 58.445312 208.128906 C 58.359375 208.289062 58.316406 208.460938 58.316406 208.640625 C 58.316406 208.824219 58.359375 208.996094 58.445312 209.15625 C 58.53125 209.316406 58.648438 209.445312 58.800781 209.546875 C 58.953125 209.648438 59.121094 209.707031 59.300781 209.722656 C 59.480469 209.738281 59.65625 209.710938 59.824219 209.640625 C 59.992188 209.570312 60.132812 209.460938 60.246094 209.320312 C 60.359375 209.179688 60.433594 209.019531 60.464844 208.839844 L 84.625 208.839844 L 87.957031 205.507812 L 96.75 205.808594 L 99.640625 202.945312 C 99.78125 203.039062 99.9375 203.09375 100.109375 203.113281 C 100.277344 203.136719 100.445312 203.117188 100.605469 203.058594 C 100.765625 203 100.90625 202.90625 101.023438 202.78125 C 101.140625 202.65625 101.226562 202.515625 101.273438 202.351562 C 101.324219 202.183594 101.332031 202.019531 101.304688 201.851562 C 101.273438 201.683594 101.207031 201.527344 101.105469 201.390625 C 101.003906 201.253906 100.875 201.148438 100.722656 201.070312 C 100.570312 200.992188 100.40625 200.953125 100.234375 200.953125 Z M 100.277344 177 C 100.464844 177 100.628906 177.070312 100.765625 177.203125 C 100.898438 177.339844 100.964844 177.5 100.964844 177.691406 C 100.964844 177.882812 100.898438 178.042969 100.765625 178.179688 C 100.628906 178.3125 100.464844 178.382812 100.277344 178.382812 C 100.085938 178.382812 99.921875 178.3125 99.789062 178.179688 C 99.652344 178.042969 99.585938 177.882812 99.585938 177.691406 C 99.585938 177.5 99.652344 177.339844 99.789062 177.203125 C 99.921875 177.070312 100.085938 177 100.277344 177 Z M 59.402344 209.332031 C 59.210938 209.332031 59.046875 209.265625 58.914062 209.128906 C 58.777344 208.996094 58.710938 208.832031 58.710938 208.640625 C 58.710938 208.453125 58.777344 208.289062 58.914062 208.15625 C 59.046875 208.019531 59.210938 207.953125 59.402344 207.953125 C 59.589844 207.953125 59.753906 208.019531 59.886719 208.15625 C 60.023438 208.289062 60.089844 208.453125 60.089844 208.644531 C 60.089844 208.832031 60.023438 208.996094 59.886719 209.128906 C 59.753906 209.265625 59.589844 209.332031 59.402344 209.332031 Z M 100.234375 202.730469 C 100.046875 202.730469 99.882812 202.660156 99.75 202.527344 C 99.613281 202.390625 99.546875 202.230469 99.546875 202.039062 C 99.546875 201.847656 99.613281 201.6875 99.746094 201.550781 C 99.882812 201.417969 100.046875 201.347656 100.234375 201.347656 C 100.425781 201.347656 100.589844 201.417969 100.722656 201.550781 C 100.859375 201.6875 100.925781 201.847656 100.925781 202.039062 C 100.925781 202.230469 100.859375 202.390625 100.722656 202.527344 C 100.589844 202.660156 100.425781 202.726562 100.234375 202.730469 Z M 100.234375 202.730469 " fill-opacity="1" fill-rule="nonzero"/></g><g transform="matrix(1, 0, 0, 1, 108, 166)"><g clip-path="url(#30866cd649)"><g fill="#000000" fill-opacity="1"><g transform="translate(0.625967, 30.856821)"><g><path d="M 7.3125 0 L 7.3125 -18.921875 L 0.859375 -18.921875 L 0.859375 -22.1875 L 17.875 -22.1875 L 17.875 -18.921875 L 11.375 -18.921875 L 11.375 0 Z M 7.3125 0 "/></g></g></g><g fill="#000000" fill-opacity="1"><g transform="translate(24.257754, 30.856821)"><g><path d="M 2.15625 0 L 2.15625 -22.1875 L 16.640625 -22.1875 L 16.640625 -18.921875 L 6.203125 -18.921875 L 6.203125 -12.828125 L 15.6875 -12.828125 L 15.6875 -9.671875 L 6.203125 -9.671875 L 6.203125 -3.265625 L 16.640625 -3.265625 L 16.640625 0 Z M 2.15625 0 "/></g></g></g><g fill="#000000" fill-opacity="1"><g transform="translate(47.477768, 30.856821)"><g><path d="M 12.203125 0.375 C 9.960938 0.375 8.039062 -0.101562 6.4375 -1.0625 C 4.832031 -2.019531 3.59375 -3.359375 2.71875 -5.078125 C 1.851562 -6.804688 1.421875 -8.800781 1.421875 -11.0625 C 1.421875 -13.320312 1.851562 -15.316406 2.71875 -17.046875 C 3.59375 -18.773438 4.832031 -20.125 6.4375 -21.09375 C 8.039062 -22.070312 9.960938 -22.5625 12.203125 -22.5625 C 14.859375 -22.5625 17.035156 -21.898438 18.734375 -20.578125 C 20.441406 -19.253906 21.503906 -17.398438 21.921875 -15.015625 L 17.453125 -15.015625 C 17.179688 -16.222656 16.597656 -17.171875 15.703125 -17.859375 C 14.804688 -18.546875 13.617188 -18.890625 12.140625 -18.890625 C 10.085938 -18.890625 8.476562 -18.191406 7.3125 -16.796875 C 6.15625 -15.398438 5.578125 -13.488281 5.578125 -11.0625 C 5.578125 -8.632812 6.15625 -6.726562 7.3125 -5.34375 C 8.476562 -3.957031 10.085938 -3.265625 12.140625 -3.265625 C 13.617188 -3.265625 14.804688 -3.585938 15.703125 -4.234375 C 16.597656 -4.878906 17.179688 -5.769531 17.453125 -6.90625 L 21.921875 -6.90625 C 21.503906 -4.625 20.441406 -2.835938 18.734375 -1.546875 C 17.035156 -0.265625 14.859375 0.375 12.203125 0.375 Z M 12.203125 0.375 "/></g></g></g><g fill="#000000" fill-opacity="1"><g transform="translate(75.733938, 30.856821)"><g><path d="M 2.15625 0 L 2.15625 -22.1875 L 6.203125 -22.1875 L 6.203125 -12.953125 L 16.15625 -12.953125 L 16.15625 -22.1875 L 20.21875 -22.1875 L 20.21875 0 L 16.15625 0 L 16.15625 -9.671875 L 6.203125 -9.671875 L 6.203125 0 Z M 2.15625 0 "/></g></g></g><g fill="#000000" fill-opacity="1"><g transform="translate(103.01884, 30.856821)"><g><path d="M 9.03125 0 L 0.703125 -22.1875 L 3.578125 -22.1875 L 10.578125 -2.8125 L 17.65625 -22.1875 L 20.46875 -22.1875 L 12.140625 0 Z M 9.03125 0 "/></g></g></g><g fill="#000000" fill-opacity="1"><g transform="translate(129.089511, 30.856821)"><g><path d="M 12.421875 0.375 C 10.242188 0.375 8.335938 -0.101562 6.703125 -1.0625 C 5.066406 -2.019531 3.785156 -3.363281 2.859375 -5.09375 C 1.941406 -6.832031 1.484375 -8.832031 1.484375 -11.09375 C 1.484375 -13.351562 1.941406 -15.34375 2.859375 -17.0625 C 3.785156 -18.78125 5.066406 -20.125 6.703125 -21.09375 C 8.335938 -22.070312 10.242188 -22.5625 12.421875 -22.5625 C 14.617188 -22.5625 16.535156 -22.070312 18.171875 -21.09375 C 19.804688 -20.125 21.078125 -18.78125 21.984375 -17.0625 C 22.898438 -15.34375 23.359375 -13.351562 23.359375 -11.09375 C 23.359375 -8.832031 22.898438 -6.832031 21.984375 -5.09375 C 21.078125 -3.363281 19.804688 -2.019531 18.171875 -1.0625 C 16.535156 -0.101562 14.617188 0.375 12.421875 0.375 Z M 12.421875 -1.96875 C 14.046875 -1.96875 15.472656 -2.332031 16.703125 -3.0625 C 17.941406 -3.789062 18.90625 -4.832031 19.59375 -6.1875 C 20.28125 -7.550781 20.625 -9.1875 20.625 -11.09375 C 20.625 -12.988281 20.28125 -14.613281 19.59375 -15.96875 C 18.90625 -17.320312 17.941406 -18.363281 16.703125 -19.09375 C 15.472656 -19.820312 14.046875 -20.1875 12.421875 -20.1875 C 10.796875 -20.1875 9.363281 -19.820312 8.125 -19.09375 C 6.894531 -18.363281 5.9375 -17.320312 5.25 -15.96875 C 4.5625 -14.613281 4.21875 -12.988281 4.21875 -11.09375 C 4.21875 -9.1875 4.5625 -7.550781 5.25 -6.1875 C 5.9375 -4.832031 6.894531 -3.789062 8.125 -3.0625 C 9.363281 -2.332031 10.796875 -1.96875 12.421875 -1.96875 Z M 12.421875 -1.96875 "/></g></g></g><g fill="#000000" fill-opacity="1"><g transform="translate(158.834351, 30.856821)"><g><path d="M 2.34375 0 L 2.34375 -22.1875 L 5 -22.1875 L 5 -2.125 L 15.34375 -2.125 L 15.34375 0 Z M 2.34375 0 "/></g></g></g><g fill="#000000" fill-opacity="1"><g transform="translate(180.375653, 30.856821)"><g><path d="M 2.34375 0 L 2.34375 -22.1875 L 5 -22.1875 L 5 -12.140625 L 14.265625 -22.1875 L 17.625 -22.1875 L 9.375 -13.34375 L 17.75 0 L 14.515625 0 L 7.484375 -11.28125 L 5 -8.65625 L 5 0 Z M 2.34375 0 "/></g></g></g><g fill="#000000" fill-opacity="1"><g transform="translate(203.722368, 30.856821)"><g><path d="M 3.109375 0.15625 C 2.578125 0.15625 2.132812 -0.015625 1.78125 -0.359375 C 1.4375 -0.710938 1.265625 -1.140625 1.265625 -1.640625 C 1.265625 -2.148438 1.4375 -2.578125 1.78125 -2.921875 C 2.132812 -3.273438 2.578125 -3.453125 3.109375 -3.453125 C 3.609375 -3.453125 4.03125 -3.273438 4.375 -2.921875 C 4.726562 -2.578125 4.90625 -2.148438 4.90625 -1.640625 C 4.90625 -1.140625 4.726562 -0.710938 4.375 -0.359375 C 4.03125 -0.015625 3.609375 0.15625 3.109375 0.15625 Z M 3.109375 0.15625 "/></g></g></g></g></g></svg>